G04 EAGLE Gerber RS-274X export*
G75*
%MOMM*%
%FSLAX34Y34*%
%LPD*%
%INTop Copper*%
%IPPOS*%
%AMOC8*
5,1,8,0,0,1.08239X$1,22.5*%
G01*
%ADD10C,0.130000*%
%ADD11C,0.152400*%
%ADD12R,1.560000X1.560000*%
%ADD13C,1.560000*%
%ADD14C,1.508000*%
%ADD15P,1.814519X8X22.500000*%
%ADD16P,2.749271X8X202.500000*%
%ADD17C,1.752600*%
%ADD18C,2.159000*%


D10*
X0Y0D02*
X0Y-83000D01*
X1003300Y-83000D02*
X1003300Y0D01*
X1002650Y-63500D02*
X650Y-63500D01*
X26000Y-60308D01*
X26000Y-66692D01*
X650Y-63500D01*
X26000Y-62200D01*
X26000Y-64800D02*
X650Y-63500D01*
X26000Y-60900D01*
X26000Y-66100D02*
X650Y-63500D01*
X977300Y-60308D02*
X1002650Y-63500D01*
X977300Y-60308D02*
X977300Y-66692D01*
X1002650Y-63500D01*
X977300Y-62200D01*
X977300Y-64800D02*
X1002650Y-63500D01*
X977300Y-60900D01*
X977300Y-66100D02*
X1002650Y-63500D01*
D11*
X467921Y-40737D02*
X463406Y-44349D01*
X467921Y-40737D02*
X467921Y-56993D01*
X463406Y-56993D02*
X472437Y-56993D01*
X479037Y-48865D02*
X479041Y-48545D01*
X479052Y-48226D01*
X479071Y-47906D01*
X479098Y-47588D01*
X479132Y-47270D01*
X479174Y-46953D01*
X479224Y-46637D01*
X479281Y-46322D01*
X479345Y-46009D01*
X479417Y-45697D01*
X479496Y-45387D01*
X479583Y-45080D01*
X479677Y-44774D01*
X479778Y-44471D01*
X479887Y-44170D01*
X480002Y-43872D01*
X480125Y-43576D01*
X480255Y-43284D01*
X480392Y-42995D01*
X480393Y-42994D02*
X480432Y-42886D01*
X480475Y-42779D01*
X480521Y-42674D01*
X480571Y-42571D01*
X480625Y-42469D01*
X480682Y-42369D01*
X480743Y-42271D01*
X480807Y-42175D01*
X480874Y-42082D01*
X480944Y-41991D01*
X481018Y-41902D01*
X481094Y-41816D01*
X481174Y-41733D01*
X481256Y-41652D01*
X481341Y-41574D01*
X481428Y-41500D01*
X481519Y-41428D01*
X481611Y-41359D01*
X481706Y-41294D01*
X481803Y-41232D01*
X481902Y-41173D01*
X482003Y-41118D01*
X482106Y-41067D01*
X482211Y-41019D01*
X482317Y-40974D01*
X482424Y-40933D01*
X482533Y-40896D01*
X482644Y-40863D01*
X482755Y-40834D01*
X482867Y-40808D01*
X482980Y-40786D01*
X483094Y-40769D01*
X483208Y-40755D01*
X483323Y-40745D01*
X483438Y-40739D01*
X483553Y-40737D01*
X483668Y-40739D01*
X483783Y-40745D01*
X483898Y-40755D01*
X484012Y-40769D01*
X484126Y-40786D01*
X484239Y-40808D01*
X484351Y-40834D01*
X484463Y-40863D01*
X484573Y-40896D01*
X484682Y-40933D01*
X484790Y-40974D01*
X484896Y-41019D01*
X485001Y-41067D01*
X485103Y-41118D01*
X485205Y-41174D01*
X485304Y-41232D01*
X485401Y-41294D01*
X485496Y-41360D01*
X485588Y-41428D01*
X485678Y-41500D01*
X485766Y-41574D01*
X485851Y-41652D01*
X485933Y-41733D01*
X486012Y-41816D01*
X486089Y-41902D01*
X486162Y-41991D01*
X486233Y-42082D01*
X486300Y-42176D01*
X486364Y-42271D01*
X486425Y-42369D01*
X486482Y-42469D01*
X486535Y-42571D01*
X486586Y-42675D01*
X486632Y-42780D01*
X486675Y-42887D01*
X486714Y-42995D01*
X486713Y-42995D02*
X486850Y-43284D01*
X486980Y-43576D01*
X487103Y-43872D01*
X487218Y-44170D01*
X487327Y-44471D01*
X487428Y-44774D01*
X487522Y-45080D01*
X487609Y-45387D01*
X487688Y-45697D01*
X487760Y-46009D01*
X487824Y-46322D01*
X487881Y-46637D01*
X487931Y-46953D01*
X487973Y-47270D01*
X488007Y-47588D01*
X488034Y-47906D01*
X488053Y-48226D01*
X488064Y-48545D01*
X488068Y-48865D01*
X479038Y-48865D02*
X479042Y-49185D01*
X479053Y-49504D01*
X479072Y-49824D01*
X479099Y-50142D01*
X479133Y-50460D01*
X479175Y-50777D01*
X479225Y-51093D01*
X479282Y-51408D01*
X479346Y-51721D01*
X479418Y-52033D01*
X479497Y-52343D01*
X479584Y-52650D01*
X479678Y-52956D01*
X479779Y-53259D01*
X479888Y-53560D01*
X480003Y-53858D01*
X480126Y-54154D01*
X480256Y-54446D01*
X480393Y-54735D01*
X480392Y-54736D02*
X480431Y-54844D01*
X480474Y-54951D01*
X480520Y-55056D01*
X480571Y-55160D01*
X480624Y-55262D01*
X480681Y-55362D01*
X480742Y-55460D01*
X480806Y-55555D01*
X480873Y-55649D01*
X480944Y-55740D01*
X481017Y-55829D01*
X481094Y-55915D01*
X481173Y-55998D01*
X481255Y-56079D01*
X481340Y-56157D01*
X481428Y-56231D01*
X481518Y-56303D01*
X481611Y-56372D01*
X481705Y-56437D01*
X481802Y-56499D01*
X481902Y-56557D01*
X482003Y-56613D01*
X482105Y-56664D01*
X482210Y-56712D01*
X482316Y-56757D01*
X482424Y-56798D01*
X482533Y-56835D01*
X482643Y-56868D01*
X482755Y-56897D01*
X482867Y-56923D01*
X482980Y-56945D01*
X483094Y-56962D01*
X483208Y-56976D01*
X483323Y-56986D01*
X483438Y-56992D01*
X483553Y-56994D01*
X486713Y-54735D02*
X486850Y-54446D01*
X486980Y-54154D01*
X487103Y-53858D01*
X487218Y-53560D01*
X487327Y-53259D01*
X487428Y-52956D01*
X487522Y-52650D01*
X487609Y-52343D01*
X487688Y-52033D01*
X487760Y-51721D01*
X487824Y-51408D01*
X487881Y-51093D01*
X487931Y-50777D01*
X487973Y-50460D01*
X488007Y-50142D01*
X488034Y-49824D01*
X488053Y-49504D01*
X488064Y-49185D01*
X488068Y-48865D01*
X486714Y-54735D02*
X486675Y-54843D01*
X486632Y-54950D01*
X486586Y-55055D01*
X486535Y-55159D01*
X486482Y-55261D01*
X486425Y-55361D01*
X486364Y-55459D01*
X486300Y-55554D01*
X486233Y-55648D01*
X486162Y-55739D01*
X486089Y-55828D01*
X486012Y-55914D01*
X485933Y-55997D01*
X485851Y-56078D01*
X485766Y-56156D01*
X485678Y-56230D01*
X485588Y-56302D01*
X485495Y-56371D01*
X485401Y-56436D01*
X485304Y-56498D01*
X485204Y-56556D01*
X485103Y-56612D01*
X485000Y-56663D01*
X484896Y-56711D01*
X484790Y-56756D01*
X484682Y-56797D01*
X484573Y-56834D01*
X484463Y-56867D01*
X484351Y-56896D01*
X484239Y-56922D01*
X484126Y-56944D01*
X484012Y-56961D01*
X483898Y-56975D01*
X483783Y-56985D01*
X483668Y-56991D01*
X483553Y-56993D01*
X479940Y-53381D02*
X487165Y-44349D01*
X494669Y-48865D02*
X494673Y-48545D01*
X494684Y-48226D01*
X494703Y-47906D01*
X494730Y-47588D01*
X494764Y-47270D01*
X494806Y-46953D01*
X494856Y-46637D01*
X494913Y-46322D01*
X494977Y-46009D01*
X495049Y-45697D01*
X495128Y-45387D01*
X495215Y-45080D01*
X495309Y-44774D01*
X495410Y-44471D01*
X495519Y-44170D01*
X495634Y-43872D01*
X495757Y-43576D01*
X495887Y-43284D01*
X496024Y-42995D01*
X496024Y-42994D02*
X496063Y-42886D01*
X496106Y-42779D01*
X496152Y-42674D01*
X496202Y-42571D01*
X496256Y-42469D01*
X496313Y-42369D01*
X496374Y-42271D01*
X496438Y-42175D01*
X496505Y-42082D01*
X496575Y-41991D01*
X496649Y-41902D01*
X496725Y-41816D01*
X496805Y-41733D01*
X496887Y-41652D01*
X496972Y-41574D01*
X497059Y-41500D01*
X497150Y-41428D01*
X497242Y-41359D01*
X497337Y-41294D01*
X497434Y-41232D01*
X497533Y-41173D01*
X497634Y-41118D01*
X497737Y-41067D01*
X497842Y-41019D01*
X497948Y-40974D01*
X498055Y-40933D01*
X498164Y-40896D01*
X498275Y-40863D01*
X498386Y-40834D01*
X498498Y-40808D01*
X498611Y-40786D01*
X498725Y-40769D01*
X498839Y-40755D01*
X498954Y-40745D01*
X499069Y-40739D01*
X499184Y-40737D01*
X499299Y-40739D01*
X499414Y-40745D01*
X499529Y-40755D01*
X499643Y-40769D01*
X499757Y-40786D01*
X499870Y-40808D01*
X499982Y-40834D01*
X500094Y-40863D01*
X500204Y-40896D01*
X500313Y-40933D01*
X500421Y-40974D01*
X500527Y-41019D01*
X500632Y-41067D01*
X500734Y-41118D01*
X500836Y-41174D01*
X500935Y-41232D01*
X501032Y-41294D01*
X501127Y-41360D01*
X501219Y-41428D01*
X501309Y-41500D01*
X501397Y-41574D01*
X501482Y-41652D01*
X501564Y-41733D01*
X501643Y-41816D01*
X501720Y-41902D01*
X501793Y-41991D01*
X501864Y-42082D01*
X501931Y-42176D01*
X501995Y-42271D01*
X502056Y-42369D01*
X502113Y-42469D01*
X502166Y-42571D01*
X502217Y-42675D01*
X502263Y-42780D01*
X502306Y-42887D01*
X502345Y-42995D01*
X502344Y-42995D02*
X502481Y-43284D01*
X502611Y-43576D01*
X502734Y-43872D01*
X502849Y-44170D01*
X502958Y-44471D01*
X503059Y-44774D01*
X503153Y-45080D01*
X503240Y-45387D01*
X503319Y-45697D01*
X503391Y-46009D01*
X503455Y-46322D01*
X503512Y-46637D01*
X503562Y-46953D01*
X503604Y-47270D01*
X503638Y-47588D01*
X503665Y-47906D01*
X503684Y-48226D01*
X503695Y-48545D01*
X503699Y-48865D01*
X494669Y-48865D02*
X494673Y-49185D01*
X494684Y-49504D01*
X494703Y-49824D01*
X494730Y-50142D01*
X494764Y-50460D01*
X494806Y-50777D01*
X494856Y-51093D01*
X494913Y-51408D01*
X494977Y-51721D01*
X495049Y-52033D01*
X495128Y-52343D01*
X495215Y-52650D01*
X495309Y-52956D01*
X495410Y-53259D01*
X495519Y-53560D01*
X495634Y-53858D01*
X495757Y-54154D01*
X495887Y-54446D01*
X496024Y-54735D01*
X496023Y-54736D02*
X496062Y-54844D01*
X496105Y-54951D01*
X496151Y-55056D01*
X496202Y-55160D01*
X496255Y-55262D01*
X496312Y-55362D01*
X496373Y-55460D01*
X496437Y-55555D01*
X496504Y-55649D01*
X496575Y-55740D01*
X496648Y-55829D01*
X496725Y-55915D01*
X496804Y-55998D01*
X496886Y-56079D01*
X496971Y-56157D01*
X497059Y-56231D01*
X497149Y-56303D01*
X497242Y-56372D01*
X497336Y-56437D01*
X497433Y-56499D01*
X497533Y-56557D01*
X497634Y-56613D01*
X497736Y-56664D01*
X497841Y-56712D01*
X497947Y-56757D01*
X498055Y-56798D01*
X498164Y-56835D01*
X498274Y-56868D01*
X498386Y-56897D01*
X498498Y-56923D01*
X498611Y-56945D01*
X498725Y-56962D01*
X498839Y-56976D01*
X498954Y-56986D01*
X499069Y-56992D01*
X499184Y-56994D01*
X502344Y-54735D02*
X502481Y-54446D01*
X502611Y-54154D01*
X502734Y-53858D01*
X502849Y-53560D01*
X502958Y-53259D01*
X503059Y-52956D01*
X503153Y-52650D01*
X503240Y-52343D01*
X503319Y-52033D01*
X503391Y-51721D01*
X503455Y-51408D01*
X503512Y-51093D01*
X503562Y-50777D01*
X503604Y-50460D01*
X503638Y-50142D01*
X503665Y-49824D01*
X503684Y-49504D01*
X503695Y-49185D01*
X503699Y-48865D01*
X502345Y-54735D02*
X502306Y-54843D01*
X502263Y-54950D01*
X502217Y-55055D01*
X502166Y-55159D01*
X502113Y-55261D01*
X502056Y-55361D01*
X501995Y-55459D01*
X501931Y-55554D01*
X501864Y-55648D01*
X501793Y-55739D01*
X501720Y-55828D01*
X501643Y-55914D01*
X501564Y-55997D01*
X501482Y-56078D01*
X501397Y-56156D01*
X501309Y-56230D01*
X501219Y-56302D01*
X501126Y-56371D01*
X501032Y-56436D01*
X500935Y-56498D01*
X500835Y-56556D01*
X500734Y-56612D01*
X500631Y-56663D01*
X500527Y-56711D01*
X500421Y-56756D01*
X500313Y-56797D01*
X500204Y-56834D01*
X500094Y-56867D01*
X499982Y-56896D01*
X499870Y-56922D01*
X499757Y-56944D01*
X499643Y-56961D01*
X499529Y-56975D01*
X499414Y-56985D01*
X499299Y-56991D01*
X499184Y-56993D01*
X495571Y-53381D02*
X502796Y-44349D01*
X509674Y-56090D02*
X509674Y-56993D01*
X509674Y-56090D02*
X510577Y-56090D01*
X510577Y-56993D01*
X509674Y-56993D01*
X516552Y-56993D02*
X521068Y-56993D01*
X521201Y-56991D01*
X521333Y-56985D01*
X521465Y-56975D01*
X521597Y-56962D01*
X521729Y-56944D01*
X521859Y-56923D01*
X521990Y-56898D01*
X522119Y-56869D01*
X522247Y-56836D01*
X522375Y-56800D01*
X522501Y-56760D01*
X522626Y-56716D01*
X522750Y-56668D01*
X522872Y-56617D01*
X522993Y-56562D01*
X523112Y-56504D01*
X523230Y-56442D01*
X523345Y-56377D01*
X523459Y-56308D01*
X523570Y-56237D01*
X523679Y-56161D01*
X523786Y-56083D01*
X523891Y-56002D01*
X523993Y-55917D01*
X524093Y-55830D01*
X524190Y-55740D01*
X524285Y-55647D01*
X524376Y-55551D01*
X524465Y-55453D01*
X524551Y-55352D01*
X524634Y-55248D01*
X524714Y-55142D01*
X524790Y-55034D01*
X524864Y-54924D01*
X524934Y-54811D01*
X525001Y-54697D01*
X525064Y-54580D01*
X525124Y-54462D01*
X525181Y-54342D01*
X525234Y-54220D01*
X525283Y-54097D01*
X525329Y-53973D01*
X525371Y-53847D01*
X525409Y-53720D01*
X525444Y-53592D01*
X525475Y-53463D01*
X525502Y-53334D01*
X525525Y-53203D01*
X525545Y-53072D01*
X525560Y-52940D01*
X525572Y-52808D01*
X525580Y-52676D01*
X525584Y-52543D01*
X525584Y-52411D01*
X525580Y-52278D01*
X525572Y-52146D01*
X525560Y-52014D01*
X525545Y-51882D01*
X525525Y-51751D01*
X525502Y-51620D01*
X525475Y-51491D01*
X525444Y-51362D01*
X525409Y-51234D01*
X525371Y-51107D01*
X525329Y-50981D01*
X525283Y-50857D01*
X525234Y-50734D01*
X525181Y-50612D01*
X525124Y-50492D01*
X525064Y-50374D01*
X525001Y-50257D01*
X524934Y-50143D01*
X524864Y-50030D01*
X524790Y-49920D01*
X524714Y-49812D01*
X524634Y-49706D01*
X524551Y-49602D01*
X524465Y-49501D01*
X524376Y-49403D01*
X524285Y-49307D01*
X524190Y-49214D01*
X524093Y-49124D01*
X523993Y-49037D01*
X523891Y-48952D01*
X523786Y-48871D01*
X523679Y-48793D01*
X523570Y-48717D01*
X523459Y-48646D01*
X523345Y-48577D01*
X523230Y-48512D01*
X523112Y-48450D01*
X522993Y-48392D01*
X522872Y-48337D01*
X522750Y-48286D01*
X522626Y-48238D01*
X522501Y-48194D01*
X522375Y-48154D01*
X522247Y-48118D01*
X522119Y-48085D01*
X521990Y-48056D01*
X521859Y-48031D01*
X521729Y-48010D01*
X521597Y-47992D01*
X521465Y-47979D01*
X521333Y-47969D01*
X521201Y-47963D01*
X521068Y-47961D01*
X521971Y-40737D02*
X516552Y-40737D01*
X521971Y-40737D02*
X522090Y-40739D01*
X522210Y-40745D01*
X522329Y-40755D01*
X522447Y-40769D01*
X522566Y-40786D01*
X522683Y-40808D01*
X522800Y-40833D01*
X522915Y-40863D01*
X523030Y-40896D01*
X523144Y-40933D01*
X523256Y-40973D01*
X523367Y-41018D01*
X523476Y-41066D01*
X523584Y-41117D01*
X523690Y-41172D01*
X523794Y-41231D01*
X523896Y-41293D01*
X523996Y-41358D01*
X524094Y-41427D01*
X524190Y-41499D01*
X524283Y-41574D01*
X524373Y-41651D01*
X524461Y-41732D01*
X524546Y-41816D01*
X524628Y-41903D01*
X524708Y-41992D01*
X524784Y-42084D01*
X524858Y-42178D01*
X524928Y-42275D01*
X524995Y-42373D01*
X525059Y-42474D01*
X525119Y-42578D01*
X525176Y-42683D01*
X525229Y-42790D01*
X525279Y-42898D01*
X525325Y-43008D01*
X525367Y-43120D01*
X525406Y-43233D01*
X525441Y-43347D01*
X525472Y-43462D01*
X525500Y-43579D01*
X525523Y-43696D01*
X525543Y-43813D01*
X525559Y-43932D01*
X525571Y-44051D01*
X525579Y-44170D01*
X525583Y-44289D01*
X525583Y-44409D01*
X525579Y-44528D01*
X525571Y-44647D01*
X525559Y-44766D01*
X525543Y-44885D01*
X525523Y-45002D01*
X525500Y-45119D01*
X525472Y-45236D01*
X525441Y-45351D01*
X525406Y-45465D01*
X525367Y-45578D01*
X525325Y-45690D01*
X525279Y-45800D01*
X525229Y-45908D01*
X525176Y-46015D01*
X525119Y-46120D01*
X525059Y-46224D01*
X524995Y-46325D01*
X524928Y-46423D01*
X524858Y-46520D01*
X524784Y-46614D01*
X524708Y-46706D01*
X524628Y-46795D01*
X524546Y-46882D01*
X524461Y-46966D01*
X524373Y-47047D01*
X524283Y-47124D01*
X524190Y-47199D01*
X524094Y-47271D01*
X523996Y-47340D01*
X523896Y-47405D01*
X523794Y-47467D01*
X523690Y-47526D01*
X523584Y-47581D01*
X523476Y-47632D01*
X523367Y-47680D01*
X523256Y-47725D01*
X523144Y-47765D01*
X523030Y-47802D01*
X522915Y-47835D01*
X522800Y-47865D01*
X522683Y-47890D01*
X522566Y-47912D01*
X522447Y-47929D01*
X522329Y-47943D01*
X522210Y-47953D01*
X522090Y-47959D01*
X521971Y-47961D01*
X521971Y-47962D02*
X518358Y-47962D01*
X532183Y-56993D02*
X536699Y-56993D01*
X536832Y-56991D01*
X536964Y-56985D01*
X537096Y-56975D01*
X537228Y-56962D01*
X537360Y-56944D01*
X537490Y-56923D01*
X537621Y-56898D01*
X537750Y-56869D01*
X537878Y-56836D01*
X538006Y-56800D01*
X538132Y-56760D01*
X538257Y-56716D01*
X538381Y-56668D01*
X538503Y-56617D01*
X538624Y-56562D01*
X538743Y-56504D01*
X538861Y-56442D01*
X538976Y-56377D01*
X539090Y-56308D01*
X539201Y-56237D01*
X539310Y-56161D01*
X539417Y-56083D01*
X539522Y-56002D01*
X539624Y-55917D01*
X539724Y-55830D01*
X539821Y-55740D01*
X539916Y-55647D01*
X540007Y-55551D01*
X540096Y-55453D01*
X540182Y-55352D01*
X540265Y-55248D01*
X540345Y-55142D01*
X540421Y-55034D01*
X540495Y-54924D01*
X540565Y-54811D01*
X540632Y-54697D01*
X540695Y-54580D01*
X540755Y-54462D01*
X540812Y-54342D01*
X540865Y-54220D01*
X540914Y-54097D01*
X540960Y-53973D01*
X541002Y-53847D01*
X541040Y-53720D01*
X541075Y-53592D01*
X541106Y-53463D01*
X541133Y-53334D01*
X541156Y-53203D01*
X541176Y-53072D01*
X541191Y-52940D01*
X541203Y-52808D01*
X541211Y-52676D01*
X541215Y-52543D01*
X541215Y-52411D01*
X541211Y-52278D01*
X541203Y-52146D01*
X541191Y-52014D01*
X541176Y-51882D01*
X541156Y-51751D01*
X541133Y-51620D01*
X541106Y-51491D01*
X541075Y-51362D01*
X541040Y-51234D01*
X541002Y-51107D01*
X540960Y-50981D01*
X540914Y-50857D01*
X540865Y-50734D01*
X540812Y-50612D01*
X540755Y-50492D01*
X540695Y-50374D01*
X540632Y-50257D01*
X540565Y-50143D01*
X540495Y-50030D01*
X540421Y-49920D01*
X540345Y-49812D01*
X540265Y-49706D01*
X540182Y-49602D01*
X540096Y-49501D01*
X540007Y-49403D01*
X539916Y-49307D01*
X539821Y-49214D01*
X539724Y-49124D01*
X539624Y-49037D01*
X539522Y-48952D01*
X539417Y-48871D01*
X539310Y-48793D01*
X539201Y-48717D01*
X539090Y-48646D01*
X538976Y-48577D01*
X538861Y-48512D01*
X538743Y-48450D01*
X538624Y-48392D01*
X538503Y-48337D01*
X538381Y-48286D01*
X538257Y-48238D01*
X538132Y-48194D01*
X538006Y-48154D01*
X537878Y-48118D01*
X537750Y-48085D01*
X537621Y-48056D01*
X537490Y-48031D01*
X537360Y-48010D01*
X537228Y-47992D01*
X537096Y-47979D01*
X536964Y-47969D01*
X536832Y-47963D01*
X536699Y-47961D01*
X537602Y-40737D02*
X532183Y-40737D01*
X537602Y-40737D02*
X537721Y-40739D01*
X537841Y-40745D01*
X537960Y-40755D01*
X538078Y-40769D01*
X538197Y-40786D01*
X538314Y-40808D01*
X538431Y-40833D01*
X538546Y-40863D01*
X538661Y-40896D01*
X538775Y-40933D01*
X538887Y-40973D01*
X538998Y-41018D01*
X539107Y-41066D01*
X539215Y-41117D01*
X539321Y-41172D01*
X539425Y-41231D01*
X539527Y-41293D01*
X539627Y-41358D01*
X539725Y-41427D01*
X539821Y-41499D01*
X539914Y-41574D01*
X540004Y-41651D01*
X540092Y-41732D01*
X540177Y-41816D01*
X540259Y-41903D01*
X540339Y-41992D01*
X540415Y-42084D01*
X540489Y-42178D01*
X540559Y-42275D01*
X540626Y-42373D01*
X540690Y-42474D01*
X540750Y-42578D01*
X540807Y-42683D01*
X540860Y-42790D01*
X540910Y-42898D01*
X540956Y-43008D01*
X540998Y-43120D01*
X541037Y-43233D01*
X541072Y-43347D01*
X541103Y-43462D01*
X541131Y-43579D01*
X541154Y-43696D01*
X541174Y-43813D01*
X541190Y-43932D01*
X541202Y-44051D01*
X541210Y-44170D01*
X541214Y-44289D01*
X541214Y-44409D01*
X541210Y-44528D01*
X541202Y-44647D01*
X541190Y-44766D01*
X541174Y-44885D01*
X541154Y-45002D01*
X541131Y-45119D01*
X541103Y-45236D01*
X541072Y-45351D01*
X541037Y-45465D01*
X540998Y-45578D01*
X540956Y-45690D01*
X540910Y-45800D01*
X540860Y-45908D01*
X540807Y-46015D01*
X540750Y-46120D01*
X540690Y-46224D01*
X540626Y-46325D01*
X540559Y-46423D01*
X540489Y-46520D01*
X540415Y-46614D01*
X540339Y-46706D01*
X540259Y-46795D01*
X540177Y-46882D01*
X540092Y-46966D01*
X540004Y-47047D01*
X539914Y-47124D01*
X539821Y-47199D01*
X539725Y-47271D01*
X539627Y-47340D01*
X539527Y-47405D01*
X539425Y-47467D01*
X539321Y-47526D01*
X539215Y-47581D01*
X539107Y-47632D01*
X538998Y-47680D01*
X538887Y-47725D01*
X538775Y-47765D01*
X538661Y-47802D01*
X538546Y-47835D01*
X538431Y-47865D01*
X538314Y-47890D01*
X538197Y-47912D01*
X538078Y-47929D01*
X537960Y-47943D01*
X537841Y-47953D01*
X537721Y-47959D01*
X537602Y-47961D01*
X537602Y-47962D02*
X533990Y-47962D01*
D10*
X1000000Y0D02*
X1111700Y0D01*
X1111700Y800000D02*
X1000000Y800000D01*
X1092200Y799350D02*
X1092200Y650D01*
X1089008Y26000D01*
X1095392Y26000D01*
X1092200Y650D01*
X1090900Y26000D01*
X1093500Y26000D02*
X1092200Y650D01*
X1089600Y26000D01*
X1094800Y26000D02*
X1092200Y650D01*
X1089008Y774000D02*
X1092200Y799350D01*
X1089008Y774000D02*
X1095392Y774000D01*
X1092200Y799350D01*
X1090900Y774000D01*
X1093500Y774000D02*
X1092200Y799350D01*
X1089600Y774000D01*
X1094800Y774000D02*
X1092200Y799350D01*
D11*
X1081177Y377884D02*
X1081044Y377882D01*
X1080912Y377876D01*
X1080780Y377866D01*
X1080648Y377853D01*
X1080516Y377835D01*
X1080386Y377814D01*
X1080255Y377789D01*
X1080126Y377760D01*
X1079998Y377727D01*
X1079870Y377691D01*
X1079744Y377651D01*
X1079619Y377607D01*
X1079495Y377559D01*
X1079373Y377508D01*
X1079252Y377453D01*
X1079133Y377395D01*
X1079015Y377333D01*
X1078900Y377268D01*
X1078786Y377199D01*
X1078675Y377128D01*
X1078566Y377052D01*
X1078459Y376974D01*
X1078354Y376893D01*
X1078252Y376808D01*
X1078152Y376721D01*
X1078055Y376631D01*
X1077960Y376538D01*
X1077869Y376442D01*
X1077780Y376344D01*
X1077694Y376243D01*
X1077611Y376139D01*
X1077531Y376033D01*
X1077455Y375925D01*
X1077381Y375815D01*
X1077311Y375702D01*
X1077244Y375588D01*
X1077181Y375471D01*
X1077121Y375353D01*
X1077064Y375233D01*
X1077011Y375111D01*
X1076962Y374988D01*
X1076916Y374864D01*
X1076874Y374738D01*
X1076836Y374611D01*
X1076801Y374483D01*
X1076770Y374354D01*
X1076743Y374225D01*
X1076720Y374094D01*
X1076700Y373963D01*
X1076685Y373831D01*
X1076673Y373699D01*
X1076665Y373567D01*
X1076661Y373434D01*
X1076661Y373302D01*
X1076665Y373169D01*
X1076673Y373037D01*
X1076685Y372905D01*
X1076700Y372773D01*
X1076720Y372642D01*
X1076743Y372511D01*
X1076770Y372382D01*
X1076801Y372253D01*
X1076836Y372125D01*
X1076874Y371998D01*
X1076916Y371872D01*
X1076962Y371748D01*
X1077011Y371625D01*
X1077064Y371503D01*
X1077121Y371383D01*
X1077181Y371265D01*
X1077244Y371148D01*
X1077311Y371034D01*
X1077381Y370921D01*
X1077455Y370811D01*
X1077531Y370703D01*
X1077611Y370597D01*
X1077694Y370493D01*
X1077780Y370392D01*
X1077869Y370294D01*
X1077960Y370198D01*
X1078055Y370105D01*
X1078152Y370015D01*
X1078252Y369928D01*
X1078354Y369843D01*
X1078459Y369762D01*
X1078566Y369684D01*
X1078675Y369608D01*
X1078786Y369537D01*
X1078900Y369468D01*
X1079015Y369403D01*
X1079133Y369341D01*
X1079252Y369283D01*
X1079373Y369228D01*
X1079495Y369177D01*
X1079619Y369129D01*
X1079744Y369085D01*
X1079870Y369045D01*
X1079998Y369009D01*
X1080126Y368976D01*
X1080255Y368947D01*
X1080386Y368922D01*
X1080516Y368901D01*
X1080648Y368883D01*
X1080780Y368870D01*
X1080912Y368860D01*
X1081044Y368854D01*
X1081177Y368852D01*
X1081310Y368854D01*
X1081442Y368860D01*
X1081574Y368870D01*
X1081706Y368883D01*
X1081838Y368901D01*
X1081968Y368922D01*
X1082099Y368947D01*
X1082228Y368976D01*
X1082356Y369009D01*
X1082484Y369045D01*
X1082610Y369085D01*
X1082735Y369129D01*
X1082859Y369177D01*
X1082981Y369228D01*
X1083102Y369283D01*
X1083221Y369341D01*
X1083339Y369403D01*
X1083454Y369468D01*
X1083568Y369537D01*
X1083679Y369608D01*
X1083788Y369684D01*
X1083895Y369762D01*
X1084000Y369843D01*
X1084102Y369928D01*
X1084202Y370015D01*
X1084299Y370105D01*
X1084394Y370198D01*
X1084485Y370294D01*
X1084574Y370392D01*
X1084660Y370493D01*
X1084743Y370597D01*
X1084823Y370703D01*
X1084899Y370811D01*
X1084973Y370921D01*
X1085043Y371034D01*
X1085110Y371148D01*
X1085173Y371265D01*
X1085233Y371383D01*
X1085290Y371503D01*
X1085343Y371625D01*
X1085392Y371748D01*
X1085438Y371872D01*
X1085480Y371998D01*
X1085518Y372125D01*
X1085553Y372253D01*
X1085584Y372382D01*
X1085611Y372511D01*
X1085634Y372642D01*
X1085654Y372773D01*
X1085669Y372905D01*
X1085681Y373037D01*
X1085689Y373169D01*
X1085693Y373302D01*
X1085693Y373434D01*
X1085689Y373567D01*
X1085681Y373699D01*
X1085669Y373831D01*
X1085654Y373963D01*
X1085634Y374094D01*
X1085611Y374225D01*
X1085584Y374354D01*
X1085553Y374483D01*
X1085518Y374611D01*
X1085480Y374738D01*
X1085438Y374864D01*
X1085392Y374988D01*
X1085343Y375111D01*
X1085290Y375233D01*
X1085233Y375353D01*
X1085173Y375471D01*
X1085110Y375588D01*
X1085043Y375702D01*
X1084973Y375815D01*
X1084899Y375925D01*
X1084823Y376033D01*
X1084743Y376139D01*
X1084660Y376243D01*
X1084574Y376344D01*
X1084485Y376442D01*
X1084394Y376538D01*
X1084299Y376631D01*
X1084202Y376721D01*
X1084102Y376808D01*
X1084000Y376893D01*
X1083895Y376974D01*
X1083788Y377052D01*
X1083679Y377128D01*
X1083568Y377199D01*
X1083454Y377268D01*
X1083339Y377333D01*
X1083221Y377395D01*
X1083102Y377453D01*
X1082981Y377508D01*
X1082859Y377559D01*
X1082735Y377607D01*
X1082610Y377651D01*
X1082484Y377691D01*
X1082356Y377727D01*
X1082228Y377760D01*
X1082099Y377789D01*
X1081968Y377814D01*
X1081838Y377835D01*
X1081706Y377853D01*
X1081574Y377866D01*
X1081442Y377876D01*
X1081310Y377882D01*
X1081177Y377884D01*
X1073049Y376980D02*
X1072930Y376978D01*
X1072810Y376972D01*
X1072691Y376962D01*
X1072573Y376948D01*
X1072454Y376931D01*
X1072337Y376909D01*
X1072220Y376884D01*
X1072105Y376854D01*
X1071990Y376821D01*
X1071876Y376784D01*
X1071764Y376744D01*
X1071653Y376699D01*
X1071544Y376651D01*
X1071436Y376600D01*
X1071330Y376545D01*
X1071226Y376486D01*
X1071124Y376424D01*
X1071024Y376359D01*
X1070926Y376290D01*
X1070830Y376218D01*
X1070737Y376143D01*
X1070647Y376066D01*
X1070559Y375985D01*
X1070474Y375901D01*
X1070392Y375814D01*
X1070312Y375725D01*
X1070236Y375633D01*
X1070162Y375539D01*
X1070092Y375442D01*
X1070025Y375344D01*
X1069961Y375243D01*
X1069901Y375139D01*
X1069844Y375034D01*
X1069791Y374927D01*
X1069741Y374819D01*
X1069695Y374709D01*
X1069653Y374597D01*
X1069614Y374484D01*
X1069579Y374370D01*
X1069548Y374255D01*
X1069520Y374138D01*
X1069497Y374021D01*
X1069477Y373904D01*
X1069461Y373785D01*
X1069449Y373666D01*
X1069441Y373547D01*
X1069437Y373428D01*
X1069437Y373308D01*
X1069441Y373189D01*
X1069449Y373070D01*
X1069461Y372951D01*
X1069477Y372832D01*
X1069497Y372715D01*
X1069520Y372598D01*
X1069548Y372481D01*
X1069579Y372366D01*
X1069614Y372252D01*
X1069653Y372139D01*
X1069695Y372027D01*
X1069741Y371917D01*
X1069791Y371809D01*
X1069844Y371702D01*
X1069901Y371597D01*
X1069961Y371493D01*
X1070025Y371392D01*
X1070092Y371294D01*
X1070162Y371197D01*
X1070236Y371103D01*
X1070312Y371011D01*
X1070392Y370922D01*
X1070474Y370835D01*
X1070559Y370751D01*
X1070647Y370670D01*
X1070737Y370593D01*
X1070830Y370518D01*
X1070926Y370446D01*
X1071024Y370377D01*
X1071124Y370312D01*
X1071226Y370250D01*
X1071330Y370191D01*
X1071436Y370136D01*
X1071544Y370085D01*
X1071653Y370037D01*
X1071764Y369992D01*
X1071876Y369952D01*
X1071990Y369915D01*
X1072105Y369882D01*
X1072220Y369852D01*
X1072337Y369827D01*
X1072454Y369805D01*
X1072573Y369788D01*
X1072691Y369774D01*
X1072810Y369764D01*
X1072930Y369758D01*
X1073049Y369756D01*
X1073168Y369758D01*
X1073288Y369764D01*
X1073407Y369774D01*
X1073525Y369788D01*
X1073644Y369805D01*
X1073761Y369827D01*
X1073878Y369852D01*
X1073993Y369882D01*
X1074108Y369915D01*
X1074222Y369952D01*
X1074334Y369992D01*
X1074445Y370037D01*
X1074554Y370085D01*
X1074662Y370136D01*
X1074768Y370191D01*
X1074872Y370250D01*
X1074974Y370312D01*
X1075074Y370377D01*
X1075172Y370446D01*
X1075268Y370518D01*
X1075361Y370593D01*
X1075451Y370670D01*
X1075539Y370751D01*
X1075624Y370835D01*
X1075706Y370922D01*
X1075786Y371011D01*
X1075862Y371103D01*
X1075936Y371197D01*
X1076006Y371294D01*
X1076073Y371392D01*
X1076137Y371493D01*
X1076197Y371597D01*
X1076254Y371702D01*
X1076307Y371809D01*
X1076357Y371917D01*
X1076403Y372027D01*
X1076445Y372139D01*
X1076484Y372252D01*
X1076519Y372366D01*
X1076550Y372481D01*
X1076578Y372598D01*
X1076601Y372715D01*
X1076621Y372832D01*
X1076637Y372951D01*
X1076649Y373070D01*
X1076657Y373189D01*
X1076661Y373308D01*
X1076661Y373428D01*
X1076657Y373547D01*
X1076649Y373666D01*
X1076637Y373785D01*
X1076621Y373904D01*
X1076601Y374021D01*
X1076578Y374138D01*
X1076550Y374255D01*
X1076519Y374370D01*
X1076484Y374484D01*
X1076445Y374597D01*
X1076403Y374709D01*
X1076357Y374819D01*
X1076307Y374927D01*
X1076254Y375034D01*
X1076197Y375139D01*
X1076137Y375243D01*
X1076073Y375344D01*
X1076006Y375442D01*
X1075936Y375539D01*
X1075862Y375633D01*
X1075786Y375725D01*
X1075706Y375814D01*
X1075624Y375901D01*
X1075539Y375985D01*
X1075451Y376066D01*
X1075361Y376143D01*
X1075268Y376218D01*
X1075172Y376290D01*
X1075074Y376359D01*
X1074974Y376424D01*
X1074872Y376486D01*
X1074768Y376545D01*
X1074662Y376600D01*
X1074554Y376651D01*
X1074445Y376699D01*
X1074334Y376744D01*
X1074222Y376784D01*
X1074108Y376821D01*
X1073993Y376854D01*
X1073878Y376884D01*
X1073761Y376909D01*
X1073644Y376931D01*
X1073525Y376948D01*
X1073407Y376962D01*
X1073288Y376972D01*
X1073168Y376978D01*
X1073049Y376980D01*
X1077565Y384484D02*
X1077245Y384488D01*
X1076926Y384499D01*
X1076606Y384518D01*
X1076288Y384545D01*
X1075970Y384579D01*
X1075653Y384621D01*
X1075337Y384671D01*
X1075022Y384728D01*
X1074709Y384792D01*
X1074397Y384864D01*
X1074087Y384943D01*
X1073780Y385030D01*
X1073474Y385124D01*
X1073171Y385225D01*
X1072870Y385334D01*
X1072572Y385449D01*
X1072276Y385572D01*
X1071984Y385702D01*
X1071695Y385839D01*
X1071694Y385839D02*
X1071586Y385878D01*
X1071479Y385921D01*
X1071374Y385967D01*
X1071271Y386017D01*
X1071169Y386071D01*
X1071069Y386128D01*
X1070971Y386189D01*
X1070875Y386253D01*
X1070782Y386320D01*
X1070691Y386390D01*
X1070602Y386464D01*
X1070516Y386540D01*
X1070433Y386620D01*
X1070352Y386702D01*
X1070274Y386787D01*
X1070200Y386874D01*
X1070128Y386965D01*
X1070059Y387057D01*
X1069994Y387152D01*
X1069932Y387249D01*
X1069873Y387348D01*
X1069818Y387449D01*
X1069767Y387552D01*
X1069719Y387657D01*
X1069674Y387763D01*
X1069633Y387870D01*
X1069596Y387979D01*
X1069563Y388090D01*
X1069534Y388201D01*
X1069508Y388313D01*
X1069486Y388426D01*
X1069469Y388540D01*
X1069455Y388654D01*
X1069445Y388769D01*
X1069439Y388884D01*
X1069437Y388999D01*
X1069439Y389114D01*
X1069445Y389229D01*
X1069455Y389344D01*
X1069469Y389458D01*
X1069486Y389572D01*
X1069508Y389685D01*
X1069534Y389797D01*
X1069563Y389909D01*
X1069596Y390019D01*
X1069633Y390128D01*
X1069674Y390236D01*
X1069719Y390342D01*
X1069767Y390447D01*
X1069818Y390549D01*
X1069874Y390651D01*
X1069932Y390750D01*
X1069994Y390847D01*
X1070060Y390942D01*
X1070128Y391034D01*
X1070200Y391124D01*
X1070274Y391212D01*
X1070352Y391297D01*
X1070433Y391379D01*
X1070516Y391458D01*
X1070602Y391535D01*
X1070691Y391608D01*
X1070782Y391679D01*
X1070876Y391746D01*
X1070971Y391810D01*
X1071069Y391871D01*
X1071169Y391928D01*
X1071271Y391981D01*
X1071375Y392032D01*
X1071480Y392078D01*
X1071587Y392121D01*
X1071695Y392160D01*
X1071695Y392159D02*
X1071984Y392296D01*
X1072276Y392426D01*
X1072572Y392549D01*
X1072870Y392664D01*
X1073171Y392773D01*
X1073474Y392874D01*
X1073780Y392968D01*
X1074087Y393055D01*
X1074397Y393134D01*
X1074709Y393206D01*
X1075022Y393270D01*
X1075337Y393327D01*
X1075653Y393377D01*
X1075970Y393419D01*
X1076288Y393453D01*
X1076606Y393480D01*
X1076926Y393499D01*
X1077245Y393510D01*
X1077565Y393514D01*
X1077565Y384484D02*
X1077885Y384488D01*
X1078204Y384499D01*
X1078524Y384518D01*
X1078842Y384545D01*
X1079160Y384579D01*
X1079477Y384621D01*
X1079793Y384671D01*
X1080108Y384728D01*
X1080421Y384792D01*
X1080733Y384864D01*
X1081043Y384943D01*
X1081350Y385030D01*
X1081656Y385124D01*
X1081959Y385225D01*
X1082260Y385334D01*
X1082558Y385449D01*
X1082854Y385572D01*
X1083146Y385702D01*
X1083435Y385839D01*
X1083436Y385838D02*
X1083544Y385877D01*
X1083651Y385920D01*
X1083756Y385966D01*
X1083860Y386017D01*
X1083962Y386070D01*
X1084062Y386127D01*
X1084160Y386188D01*
X1084255Y386252D01*
X1084349Y386319D01*
X1084440Y386390D01*
X1084529Y386463D01*
X1084615Y386540D01*
X1084698Y386619D01*
X1084779Y386701D01*
X1084857Y386786D01*
X1084931Y386874D01*
X1085003Y386964D01*
X1085072Y387057D01*
X1085137Y387151D01*
X1085199Y387248D01*
X1085257Y387348D01*
X1085313Y387449D01*
X1085364Y387551D01*
X1085412Y387656D01*
X1085457Y387762D01*
X1085498Y387870D01*
X1085535Y387979D01*
X1085568Y388089D01*
X1085597Y388201D01*
X1085623Y388313D01*
X1085645Y388426D01*
X1085662Y388540D01*
X1085676Y388654D01*
X1085686Y388769D01*
X1085692Y388884D01*
X1085694Y388999D01*
X1083435Y392159D02*
X1083146Y392296D01*
X1082854Y392426D01*
X1082558Y392549D01*
X1082260Y392664D01*
X1081959Y392773D01*
X1081656Y392874D01*
X1081350Y392968D01*
X1081043Y393055D01*
X1080733Y393134D01*
X1080421Y393206D01*
X1080108Y393270D01*
X1079793Y393327D01*
X1079477Y393377D01*
X1079160Y393419D01*
X1078842Y393453D01*
X1078524Y393480D01*
X1078204Y393499D01*
X1077885Y393510D01*
X1077565Y393514D01*
X1083435Y392160D02*
X1083543Y392121D01*
X1083650Y392078D01*
X1083755Y392032D01*
X1083859Y391981D01*
X1083961Y391928D01*
X1084061Y391871D01*
X1084159Y391810D01*
X1084254Y391746D01*
X1084348Y391679D01*
X1084439Y391608D01*
X1084528Y391535D01*
X1084614Y391458D01*
X1084697Y391379D01*
X1084778Y391297D01*
X1084856Y391212D01*
X1084930Y391124D01*
X1085002Y391034D01*
X1085071Y390941D01*
X1085136Y390847D01*
X1085198Y390750D01*
X1085256Y390650D01*
X1085312Y390549D01*
X1085363Y390446D01*
X1085411Y390342D01*
X1085456Y390236D01*
X1085497Y390128D01*
X1085534Y390019D01*
X1085567Y389909D01*
X1085596Y389797D01*
X1085622Y389685D01*
X1085644Y389572D01*
X1085661Y389458D01*
X1085675Y389344D01*
X1085685Y389229D01*
X1085691Y389114D01*
X1085693Y388999D01*
X1082081Y385386D02*
X1073049Y392611D01*
X1084790Y399489D02*
X1085693Y399489D01*
X1084790Y399489D02*
X1084790Y400392D01*
X1085693Y400392D01*
X1085693Y399489D01*
X1077565Y406367D02*
X1077245Y406371D01*
X1076926Y406382D01*
X1076606Y406401D01*
X1076288Y406428D01*
X1075970Y406462D01*
X1075653Y406504D01*
X1075337Y406554D01*
X1075022Y406611D01*
X1074709Y406675D01*
X1074397Y406747D01*
X1074087Y406826D01*
X1073780Y406913D01*
X1073474Y407007D01*
X1073171Y407108D01*
X1072870Y407217D01*
X1072572Y407332D01*
X1072276Y407455D01*
X1071984Y407585D01*
X1071695Y407722D01*
X1071694Y407722D02*
X1071586Y407761D01*
X1071479Y407804D01*
X1071374Y407850D01*
X1071271Y407900D01*
X1071169Y407954D01*
X1071069Y408011D01*
X1070971Y408072D01*
X1070875Y408136D01*
X1070782Y408203D01*
X1070691Y408273D01*
X1070602Y408347D01*
X1070516Y408423D01*
X1070433Y408503D01*
X1070352Y408585D01*
X1070274Y408670D01*
X1070200Y408757D01*
X1070128Y408848D01*
X1070059Y408940D01*
X1069994Y409035D01*
X1069932Y409132D01*
X1069873Y409231D01*
X1069818Y409332D01*
X1069767Y409435D01*
X1069719Y409540D01*
X1069674Y409646D01*
X1069633Y409753D01*
X1069596Y409862D01*
X1069563Y409973D01*
X1069534Y410084D01*
X1069508Y410196D01*
X1069486Y410309D01*
X1069469Y410423D01*
X1069455Y410537D01*
X1069445Y410652D01*
X1069439Y410767D01*
X1069437Y410882D01*
X1069439Y410997D01*
X1069445Y411112D01*
X1069455Y411227D01*
X1069469Y411341D01*
X1069486Y411455D01*
X1069508Y411568D01*
X1069534Y411680D01*
X1069563Y411792D01*
X1069596Y411902D01*
X1069633Y412011D01*
X1069674Y412119D01*
X1069719Y412225D01*
X1069767Y412330D01*
X1069818Y412432D01*
X1069874Y412534D01*
X1069932Y412633D01*
X1069994Y412730D01*
X1070060Y412825D01*
X1070128Y412917D01*
X1070200Y413007D01*
X1070274Y413095D01*
X1070352Y413180D01*
X1070433Y413262D01*
X1070516Y413341D01*
X1070602Y413418D01*
X1070691Y413491D01*
X1070782Y413562D01*
X1070876Y413629D01*
X1070971Y413693D01*
X1071069Y413754D01*
X1071169Y413811D01*
X1071271Y413864D01*
X1071375Y413915D01*
X1071480Y413961D01*
X1071587Y414004D01*
X1071695Y414043D01*
X1071984Y414180D01*
X1072276Y414310D01*
X1072572Y414433D01*
X1072870Y414548D01*
X1073171Y414657D01*
X1073474Y414758D01*
X1073780Y414852D01*
X1074087Y414939D01*
X1074397Y415018D01*
X1074709Y415090D01*
X1075022Y415154D01*
X1075337Y415211D01*
X1075653Y415261D01*
X1075970Y415303D01*
X1076288Y415337D01*
X1076606Y415364D01*
X1076926Y415383D01*
X1077245Y415394D01*
X1077565Y415398D01*
X1077565Y406367D02*
X1077885Y406371D01*
X1078204Y406382D01*
X1078524Y406401D01*
X1078842Y406428D01*
X1079160Y406462D01*
X1079477Y406504D01*
X1079793Y406554D01*
X1080108Y406611D01*
X1080421Y406675D01*
X1080733Y406747D01*
X1081043Y406826D01*
X1081350Y406913D01*
X1081656Y407007D01*
X1081959Y407108D01*
X1082260Y407217D01*
X1082558Y407332D01*
X1082854Y407455D01*
X1083146Y407585D01*
X1083435Y407722D01*
X1083436Y407721D02*
X1083544Y407760D01*
X1083651Y407803D01*
X1083756Y407849D01*
X1083860Y407900D01*
X1083962Y407953D01*
X1084062Y408010D01*
X1084160Y408071D01*
X1084255Y408135D01*
X1084349Y408202D01*
X1084440Y408273D01*
X1084529Y408346D01*
X1084615Y408423D01*
X1084698Y408502D01*
X1084779Y408584D01*
X1084857Y408669D01*
X1084931Y408757D01*
X1085003Y408847D01*
X1085072Y408940D01*
X1085137Y409034D01*
X1085199Y409131D01*
X1085257Y409231D01*
X1085313Y409332D01*
X1085364Y409434D01*
X1085412Y409539D01*
X1085457Y409645D01*
X1085498Y409753D01*
X1085535Y409862D01*
X1085568Y409972D01*
X1085597Y410084D01*
X1085623Y410196D01*
X1085645Y410309D01*
X1085662Y410423D01*
X1085676Y410537D01*
X1085686Y410652D01*
X1085692Y410767D01*
X1085694Y410882D01*
X1083435Y414043D02*
X1083146Y414180D01*
X1082854Y414310D01*
X1082558Y414433D01*
X1082260Y414548D01*
X1081959Y414657D01*
X1081656Y414758D01*
X1081350Y414852D01*
X1081043Y414939D01*
X1080733Y415018D01*
X1080421Y415090D01*
X1080108Y415154D01*
X1079793Y415211D01*
X1079477Y415261D01*
X1079160Y415303D01*
X1078842Y415337D01*
X1078524Y415364D01*
X1078204Y415383D01*
X1077885Y415394D01*
X1077565Y415398D01*
X1083435Y414043D02*
X1083543Y414004D01*
X1083650Y413961D01*
X1083755Y413915D01*
X1083859Y413864D01*
X1083961Y413811D01*
X1084061Y413754D01*
X1084159Y413693D01*
X1084254Y413629D01*
X1084348Y413562D01*
X1084439Y413491D01*
X1084528Y413418D01*
X1084614Y413341D01*
X1084697Y413262D01*
X1084778Y413180D01*
X1084856Y413095D01*
X1084930Y413007D01*
X1085002Y412917D01*
X1085071Y412824D01*
X1085136Y412730D01*
X1085198Y412633D01*
X1085256Y412533D01*
X1085312Y412432D01*
X1085363Y412329D01*
X1085411Y412225D01*
X1085456Y412119D01*
X1085497Y412011D01*
X1085534Y411902D01*
X1085567Y411792D01*
X1085596Y411680D01*
X1085622Y411568D01*
X1085644Y411455D01*
X1085661Y411341D01*
X1085675Y411227D01*
X1085685Y411112D01*
X1085691Y410997D01*
X1085693Y410882D01*
X1082081Y407270D02*
X1073049Y414495D01*
X1077565Y421998D02*
X1077245Y422002D01*
X1076926Y422013D01*
X1076606Y422032D01*
X1076288Y422059D01*
X1075970Y422093D01*
X1075653Y422135D01*
X1075337Y422185D01*
X1075022Y422242D01*
X1074709Y422306D01*
X1074397Y422378D01*
X1074087Y422457D01*
X1073780Y422544D01*
X1073474Y422638D01*
X1073171Y422739D01*
X1072870Y422848D01*
X1072572Y422963D01*
X1072276Y423086D01*
X1071984Y423216D01*
X1071695Y423353D01*
X1071694Y423354D02*
X1071586Y423393D01*
X1071479Y423436D01*
X1071374Y423482D01*
X1071271Y423532D01*
X1071169Y423586D01*
X1071069Y423643D01*
X1070971Y423704D01*
X1070875Y423768D01*
X1070782Y423835D01*
X1070691Y423905D01*
X1070602Y423979D01*
X1070516Y424055D01*
X1070433Y424135D01*
X1070352Y424217D01*
X1070274Y424302D01*
X1070200Y424389D01*
X1070128Y424480D01*
X1070059Y424572D01*
X1069994Y424667D01*
X1069932Y424764D01*
X1069873Y424863D01*
X1069818Y424964D01*
X1069767Y425067D01*
X1069719Y425172D01*
X1069674Y425278D01*
X1069633Y425385D01*
X1069596Y425494D01*
X1069563Y425605D01*
X1069534Y425716D01*
X1069508Y425828D01*
X1069486Y425941D01*
X1069469Y426055D01*
X1069455Y426169D01*
X1069445Y426284D01*
X1069439Y426399D01*
X1069437Y426514D01*
X1069439Y426629D01*
X1069445Y426744D01*
X1069455Y426859D01*
X1069469Y426973D01*
X1069486Y427087D01*
X1069508Y427200D01*
X1069534Y427312D01*
X1069563Y427424D01*
X1069596Y427534D01*
X1069633Y427643D01*
X1069674Y427751D01*
X1069719Y427857D01*
X1069767Y427962D01*
X1069818Y428064D01*
X1069874Y428166D01*
X1069932Y428265D01*
X1069994Y428362D01*
X1070060Y428457D01*
X1070128Y428549D01*
X1070200Y428639D01*
X1070274Y428727D01*
X1070352Y428812D01*
X1070433Y428894D01*
X1070516Y428973D01*
X1070602Y429050D01*
X1070691Y429123D01*
X1070782Y429194D01*
X1070876Y429261D01*
X1070971Y429325D01*
X1071069Y429386D01*
X1071169Y429443D01*
X1071271Y429496D01*
X1071375Y429547D01*
X1071480Y429593D01*
X1071587Y429636D01*
X1071695Y429675D01*
X1071695Y429674D02*
X1071984Y429811D01*
X1072276Y429941D01*
X1072572Y430064D01*
X1072870Y430179D01*
X1073171Y430288D01*
X1073474Y430389D01*
X1073780Y430483D01*
X1074087Y430570D01*
X1074397Y430649D01*
X1074709Y430721D01*
X1075022Y430785D01*
X1075337Y430842D01*
X1075653Y430892D01*
X1075970Y430934D01*
X1076288Y430968D01*
X1076606Y430995D01*
X1076926Y431014D01*
X1077245Y431025D01*
X1077565Y431029D01*
X1077565Y421998D02*
X1077885Y422002D01*
X1078204Y422013D01*
X1078524Y422032D01*
X1078842Y422059D01*
X1079160Y422093D01*
X1079477Y422135D01*
X1079793Y422185D01*
X1080108Y422242D01*
X1080421Y422306D01*
X1080733Y422378D01*
X1081043Y422457D01*
X1081350Y422544D01*
X1081656Y422638D01*
X1081959Y422739D01*
X1082260Y422848D01*
X1082558Y422963D01*
X1082854Y423086D01*
X1083146Y423216D01*
X1083435Y423353D01*
X1083436Y423353D02*
X1083544Y423392D01*
X1083651Y423435D01*
X1083756Y423481D01*
X1083860Y423532D01*
X1083962Y423585D01*
X1084062Y423642D01*
X1084160Y423703D01*
X1084255Y423767D01*
X1084349Y423834D01*
X1084440Y423905D01*
X1084529Y423978D01*
X1084615Y424055D01*
X1084698Y424134D01*
X1084779Y424216D01*
X1084857Y424301D01*
X1084931Y424389D01*
X1085003Y424479D01*
X1085072Y424572D01*
X1085137Y424666D01*
X1085199Y424763D01*
X1085257Y424863D01*
X1085313Y424964D01*
X1085364Y425066D01*
X1085412Y425171D01*
X1085457Y425277D01*
X1085498Y425385D01*
X1085535Y425494D01*
X1085568Y425604D01*
X1085597Y425716D01*
X1085623Y425828D01*
X1085645Y425941D01*
X1085662Y426055D01*
X1085676Y426169D01*
X1085686Y426284D01*
X1085692Y426399D01*
X1085694Y426514D01*
X1083435Y429674D02*
X1083146Y429811D01*
X1082854Y429941D01*
X1082558Y430064D01*
X1082260Y430179D01*
X1081959Y430288D01*
X1081656Y430389D01*
X1081350Y430483D01*
X1081043Y430570D01*
X1080733Y430649D01*
X1080421Y430721D01*
X1080108Y430785D01*
X1079793Y430842D01*
X1079477Y430892D01*
X1079160Y430934D01*
X1078842Y430968D01*
X1078524Y430995D01*
X1078204Y431014D01*
X1077885Y431025D01*
X1077565Y431029D01*
X1083435Y429675D02*
X1083543Y429636D01*
X1083650Y429593D01*
X1083755Y429547D01*
X1083859Y429496D01*
X1083961Y429443D01*
X1084061Y429386D01*
X1084159Y429325D01*
X1084254Y429261D01*
X1084348Y429194D01*
X1084439Y429123D01*
X1084528Y429050D01*
X1084614Y428973D01*
X1084697Y428894D01*
X1084778Y428812D01*
X1084856Y428727D01*
X1084930Y428639D01*
X1085002Y428549D01*
X1085071Y428456D01*
X1085136Y428362D01*
X1085198Y428265D01*
X1085256Y428165D01*
X1085312Y428064D01*
X1085363Y427961D01*
X1085411Y427857D01*
X1085456Y427751D01*
X1085497Y427643D01*
X1085534Y427534D01*
X1085567Y427424D01*
X1085596Y427312D01*
X1085622Y427200D01*
X1085644Y427087D01*
X1085661Y426973D01*
X1085675Y426859D01*
X1085685Y426744D01*
X1085691Y426629D01*
X1085693Y426514D01*
X1082081Y422901D02*
X1073049Y430126D01*
D12*
X419100Y540500D03*
D13*
X419100Y515100D03*
X419100Y83300D03*
X419100Y489700D03*
X419100Y464300D03*
X419100Y438900D03*
X419100Y413500D03*
X419100Y388100D03*
X419100Y362700D03*
X419100Y337300D03*
X419100Y311900D03*
X419100Y286500D03*
X419100Y261100D03*
X419100Y235700D03*
X419100Y210300D03*
X419100Y184900D03*
X419100Y159500D03*
X419100Y134100D03*
X419100Y108700D03*
X673100Y540500D03*
X673100Y515100D03*
X673100Y489700D03*
X673100Y464300D03*
X673100Y438900D03*
X673100Y413500D03*
X673100Y388100D03*
X673100Y362700D03*
X673100Y337300D03*
X673100Y311900D03*
X673100Y286500D03*
X673100Y261100D03*
X673100Y235700D03*
X673100Y210300D03*
X673100Y184900D03*
X673100Y159500D03*
X673100Y134100D03*
X673100Y108700D03*
X673100Y83300D03*
D14*
X754460Y304800D02*
X769540Y304800D01*
X769540Y279400D02*
X754460Y279400D01*
X754460Y254000D02*
X769540Y254000D01*
X769540Y406400D02*
X754460Y406400D01*
X754460Y431800D02*
X769540Y431800D01*
X769540Y457200D02*
X754460Y457200D01*
X185340Y406400D02*
X170260Y406400D01*
X170260Y431800D02*
X185340Y431800D01*
X185340Y457200D02*
X170260Y457200D01*
X170260Y482600D02*
X185340Y482600D01*
X457200Y690960D02*
X457200Y706040D01*
X482600Y706040D02*
X482600Y690960D01*
X508000Y690960D02*
X508000Y706040D01*
X533400Y706040D02*
X533400Y690960D01*
X558800Y690960D02*
X558800Y706040D01*
X584200Y706040D02*
X584200Y690960D01*
X609600Y690960D02*
X609600Y706040D01*
X635000Y706040D02*
X635000Y690960D01*
D15*
X241300Y457200D03*
X368300Y457200D03*
D16*
X317500Y647700D03*
X241300Y647700D03*
D17*
X215900Y647700D01*
X127000Y558800D01*
X412000Y184900D02*
X419100Y184900D01*
X127000Y355600D02*
X127000Y558800D01*
X297700Y184900D02*
X419100Y184900D01*
X297700Y184900D02*
X127000Y355600D01*
D18*
X279400Y546100D02*
X368300Y457200D01*
X279400Y546100D02*
X317500Y647700D01*
D17*
X419100Y749300D01*
X482600Y749300D01*
X508000Y723900D01*
X508000Y698500D01*
X673100Y540500D02*
X736600Y604000D01*
X678700Y540500D02*
X673100Y540500D01*
X482600Y749300D02*
X495300Y762000D01*
X685800Y762000D01*
X736600Y711200D01*
X736600Y604000D01*
X736600Y482600D01*
X762000Y457200D01*
X762000Y254000D02*
X762000Y127000D01*
X698500Y63500D01*
X647700Y63500D01*
X635000Y76200D01*
X635000Y368300D01*
X654800Y388100D01*
X673100Y388100D01*
X774700Y406400D02*
X812800Y368300D01*
X774700Y406400D02*
X762000Y406400D01*
X475027Y690927D02*
X482600Y698500D01*
X475027Y690927D02*
X475027Y683576D01*
X419100Y627649D02*
X419100Y540500D01*
X419100Y627649D02*
X475027Y683576D01*
X419100Y540500D02*
X426413Y533187D01*
X426592Y533187D01*
X596900Y362879D01*
X596900Y76200D02*
X635000Y38100D01*
X723900Y38100D01*
X812800Y127000D02*
X812800Y368300D01*
X596900Y362879D02*
X596900Y76200D01*
X723900Y38100D02*
X812800Y127000D01*
X762000Y304800D02*
X762000Y406400D01*
X762000Y279400D02*
X736600Y279400D01*
X692900Y235700D02*
X673100Y235700D01*
X692900Y235700D02*
X736600Y279400D01*
X736600Y431800D02*
X762000Y431800D01*
X736600Y431800D02*
X711200Y406400D01*
X680200Y261100D02*
X673100Y261100D01*
X711200Y292100D02*
X711200Y406400D01*
X711200Y292100D02*
X680200Y261100D01*
X533400Y698500D02*
X539750Y704850D01*
X539750Y712201D01*
X564149Y736600D01*
X647700Y736600D02*
X685800Y698500D01*
X685800Y622300D01*
X635000Y571500D02*
X635000Y508000D01*
X653300Y489700D01*
X673100Y489700D01*
X647700Y736600D02*
X564149Y736600D01*
X685800Y622300D02*
X635000Y571500D01*
X558800Y495300D02*
X558800Y698500D01*
X640600Y413500D02*
X673100Y413500D01*
X640600Y413500D02*
X558800Y495300D01*
X368300Y368300D02*
X254000Y482600D01*
X368300Y368300D02*
X368300Y317500D01*
X399300Y286500D01*
X419100Y286500D01*
X254000Y482600D02*
X177800Y482600D01*
X177800Y457200D02*
X241300Y457200D01*
X203200Y431800D02*
X177800Y431800D01*
X203200Y431800D02*
X373900Y261100D01*
X419100Y261100D01*
X348500Y235700D02*
X177800Y406400D01*
X348500Y235700D02*
X419100Y235700D01*
M02*
